<svg width="646" height="468" xmlns="http://www.w3.org/2000/svg" xmlns:xlink="http://www.w3.org/1999/xlink"><defs><linearGradient id="b" x1="50%" x2="50%" y2="100%"><stop stop-color="#CEDCEB" offset="0"/><stop stop-color="#CDDCEB" offset="1"/></linearGradient><linearGradient id="l" x1="50%" x2="50%" y2="100%"><stop stop-color="#D17AFF" offset="0"/><stop stop-color="#816DFF" offset="1"/></linearGradient><linearGradient id="n" x1="50%" x2="50%" y2="100%"><stop stop-color="#C2E998" offset="0"/><stop stop-color="#02CC87" offset="1"/></linearGradient><linearGradient id="p" x1="50%" x2="50%" y2="100%"><stop stop-color="#B4EC51" offset="0"/><stop stop-color="#429321" offset="1"/></linearGradient><linearGradient id="q" x1="31.547%" x2="50%" y1="-40.895%" y2="100%"><stop stop-color="#FFA9C1" offset="0"/><stop stop-color="#FF3BC3" offset="1"/></linearGradient><linearGradient id="r" x1="257.49%" x2="-13.016%" y1="73.134%" y2="78.223%"><stop stop-color="#D17AFF" offset="0"/><stop stop-color="#816DFF" offset="1"/></linearGradient><linearGradient id="u" x1="67.243%" x2="25.49%" y1="13.242%" y2="100%"><stop stop-color="#ABDCFF" offset="0"/><stop stop-color="#0396FF" offset="1"/></linearGradient><linearGradient id="x" x1="50%" x2="50%" y1="158.43%" y2="-47.644%"><stop stop-color="#638692" offset="0"/><stop stop-color="#ABB0D3" offset="1"/></linearGradient><linearGradient id="C" x1="50%" x2="52.813%" y1="158.43%" y2="-146.84%"><stop stop-color="#638692" offset="0"/><stop stop-color="#ABB0D3" offset="1"/></linearGradient><linearGradient id="F" x1="50%" x2="50%" y2="100%"><stop stop-color="#FFD1EE" offset="0"/><stop stop-color="#FF6BAF" offset="1"/></linearGradient><linearGradient id="G" x1="41.721%" x2="50%" y1="-61.393%" y2="100%"><stop stop-color="#D17AFF" offset="0"/><stop stop-color="#816DFF" offset="1"/></linearGradient><linearGradient id="H" x1="53.956%" x2="96.256%" y1="-13.42%" y2="59.819%"><stop stop-color="#FFD1EE" offset="0"/><stop stop-color="#FF6BAF" offset="1"/></linearGradient><linearGradient id="I" x1="50%" x2="50%" y1="-15.553%" y2="100%"><stop stop-color="#BB6849" offset="0"/><stop stop-color="#862E46" offset="1"/></linearGradient><linearGradient id="J" x1="96.396%" x2="50%" y1="-118.5%" y2="100%"><stop stop-color="#6474A4" offset="0"/><stop stop-color="#34406B" offset="1"/></linearGradient><linearGradient id="K" x1="54.853%" x2="50%" y1="-43.287%" y2="100%"><stop stop-color="#D17AFF" offset="0"/><stop stop-color="#816DFF" offset="1"/></linearGradient><linearGradient id="L" x1="50%" x2="50%" y1="-116.71%" y2="100%"><stop stop-color="#FFD1EE" offset="0"/><stop stop-color="#FF6BAF" offset="1"/></linearGradient><linearGradient id="M" x1="50%" x2="50%" y1="-17.919%" y2="100%"><stop stop-color="#FFD1EE" offset="0"/><stop stop-color="#FF6BAF" offset="1"/></linearGradient><linearGradient id="N" x1="50%" x2="50%" y1="-86.579%" y2="100%"><stop stop-color="#E2EAFC" offset="0"/><stop stop-color="#B1C3E7" offset="1"/></linearGradient><linearGradient id="O" x1="50%" x2="50%" y1="-561.41%" y2="100%"><stop stop-color="#E2EAFC" offset="0"/><stop stop-color="#B1C3E7" offset="1"/></linearGradient><linearGradient id="R" x1="96.396%" x2="50%" y1="-118.5%" y2="100%"><stop stop-color="#34426B" offset="0"/><stop stop-color="#34406B" offset="1"/></linearGradient><linearGradient id="S" x1="6.75%" x2="90.114%" y1="50%" y2="147.58%"><stop stop-color="#ABDCFF" offset="0"/><stop stop-color="#0396FF" offset="1"/></linearGradient><linearGradient id="W" x1="50%" x2="50%" y2="100%"><stop stop-color="#FFA9C1" offset="0"/><stop stop-color="#FF3BC3" offset="1"/></linearGradient><linearGradient id="Y" x1="50%" x2="50%" y1="100%" y2="0%"><stop stop-color="#C63DCD" offset="0"/><stop stop-color="#FF45B7" offset="1"/></linearGradient><linearGradient id="an" x1="50%" x2="50%" y2="125.96%"><stop stop-color="#F0D3FF" offset="0"/><stop stop-color="#816DFF" offset="1"/></linearGradient><linearGradient id="ao" x1="50%" x2="50%" y1="-9.633%" y2="100%"><stop stop-color="#C7E1F9" offset="0"/><stop stop-color="#9ACCFA" offset="1"/></linearGradient><path id="a" d="M0 .469h124.92V237.71H0z"/><path id="d" d="M.142 0h19.99v60.764H.142z"/><path id="f" d="M0 .386h102.97V195.97H0z"/><path id="h" d="M.116 0h16.288v50.166H.116z"/><path id="j" d="M95.405 6.72c0 3.714-21.357 6.722-47.702 6.722S.001 10.434.001 6.72C.001 3.008 21.358 0 47.703 0"/><path id="m" d="M0 .074h31.262V29.49H0z"/><path id="s" d="M.37 109.94l15.427-.74.198-2.68 3.273.22 7.137-95.511-3.271-.213.495-6.654L8.633.236z"/><path id="v" d="M9.852.179l3.377 8.727-2.765.982C7.697 2.122 6.986 2.79.444 4.006L9.852.179z"/><path id="y" d="M.075.07h13.143v11.994H.075z"/><path id="A" d="M.274.07h12.904v11.994H.274z"/><path id="D" d="M0 .258h25.354v72.564H0z"/><path id="P" d="M39.364 2.59c.153 8.429-3.202 17.985-10.074 26.411-1.018 1.252-2.1 2.414-3.2 3.537C16.803 31.605 8.566 25.323.49 17.894L33.871.116"/><path id="T" d="M10.212.409l2.338 9.669-2.838.155C7.877 1.658 6.922 2.85.03 3.373L10.212.408z"/><path id="V" d="M10.763 90.623c3.338 19.025 22.698 15.592 75.101 15.281 28.387 0 68.008 3.907 67.089-11.227-2.671-43.973-48.185-44.765-76.101-49.588C64.274 42.702 29.822.094 11.726.09-.911.086-5.57 20.862 10.763 90.623"/><path id="Z" d="M.29 20.31s5.009.467 12.682-1.405C.956 18.751 7.967 15.009.123.663c0 0 6.343 16.527.167 19.647"/><path id="aa" d="M.37 109.94l15.427-.74.198-2.68 3.273.22 7.137-95.511-3.271-.213.495-6.654L8.633.236z"/><path id="ad" d="M.195.135h62.46V58.34H.195z"/><path id="ag" d="M222.98 150.54v.012c0 2.482-2.16 4.494-4.823 4.5l-200.06.384c-2.67.007-4.843-2.006-4.85-4.494l-.267-123.51c-.007-2.481 2.153-4.506 4.823-4.512l200.06-.384c2.67-.006 4.842 2.005 4.849 4.493l.012 4.812.256 118.7z"/><path id="ai" d="M83.135 114.87H22.072c-1.124 0-2.034-.849-2.034-1.895V98.753c0-1.047.91-1.896 2.034-1.896h61.063c1.124 0 2.034.85 2.034 1.896v14.222c0 1.046-.91 1.895-2.034 1.895"/><path id="ak" d="M221.22 64.373c-8.219 0-14.881-6.208-14.881-13.868 0-7.659 6.662-13.867 14.881-13.867 8.22 0 14.881 6.209 14.881 13.867 0 7.66-6.662 13.868-14.881 13.868"/><path id="am" d="M76.117 130.23H2.034c-1.123 0-2.034-.849-2.034-1.895v-13.316c0-1.048.911-1.897 2.034-1.897h74.083c1.124 0 2.034.85 2.034 1.897v13.316c0 1.046-.91 1.895-2.034 1.895"/><filter id="ac" x="-14.6%" y="-14.2%" width="129.8%" height="128.5%"><feOffset dy="3" in="SourceAlpha" result="shadowOffsetOuter1"/><feGaussianBlur in="shadowOffsetOuter1" result="shadowBlurOuter1" stdDeviation="5"/><feColorMatrix in="shadowBlurOuter1" result="shadowMatrixOuter1" values="0 0 0 0 0 0 0 0 0 0 0 0 0 0 0 0 0 0 0.07 0"/><feMerge><feMergeNode in="shadowMatrixOuter1"/><feMergeNode in="SourceGraphic"/></feMerge></filter><filter id="af" x="-7.9%" y="-10.2%" width="115.7%" height="124.8%"><feOffset dy="3" in="SourceAlpha" result="shadowOffsetOuter1"/><feGaussianBlur in="shadowOffsetOuter1" result="shadowBlurOuter1" stdDeviation="5"/><feColorMatrix in="shadowBlurOuter1" values="0 0 0 0 0 0 0 0 0 0 0 0 0 0 0 0 0 0 0.07 0"/></filter><filter id="ah" x="-25.3%" y="-74.9%" width="150.7%" height="283.2%"><feOffset dy="3" in="SourceAlpha" result="shadowOffsetOuter1"/><feGaussianBlur in="shadowOffsetOuter1" result="shadowBlurOuter1" stdDeviation="5"/><feColorMatrix in="shadowBlurOuter1" values="0 0 0 0 0 0 0 0 0 0 0 0 0 0 0 0 0 0 0.07 0"/></filter><filter id="aj" x="-55.4%" y="-48.7%" width="210.9%" height="219%"><feOffset dy="3" in="SourceAlpha" result="shadowOffsetOuter1"/><feGaussianBlur in="shadowOffsetOuter1" result="shadowBlurOuter1" stdDeviation="5"/><feColorMatrix in="shadowBlurOuter1" values="0 0 0 0 0 0 0 0 0 0 0 0 0 0 0 0 0 0 0.07 0"/></filter><filter id="al" x="-21.1%" y="-61.4%" width="142.2%" height="292.9%"><feOffset dy="6" in="SourceAlpha" result="shadowOffsetOuter1"/><feGaussianBlur in="shadowOffsetOuter1" result="shadowBlurOuter1" stdDeviation="4.5"/><feColorMatrix in="shadowBlurOuter1" values="0 0 0 0 0.856658153 0 0 0 0 0.774127999 0 0 0 0 1 0 0 0 0.352977808 0"/></filter></defs><g fill="none" fill-rule="evenodd"><g opacity=".76"><g transform="translate(8.184 158.671)" opacity=".313"><mask id="c" fill="#fff"><use xlink:href="#a"/></mask><path d="M116.07 237.71H8.84c-4.888 0-8.85-3.706-8.85-8.276V8.754c0-4.57 3.962-8.277 8.85-8.277h107.23c4.887 0 8.85 3.706 8.85 8.277v220.68c0 4.57-3.963 8.276-8.85 8.276" fill="url(#b)" mask="url(#c)"/></g><path d="M117.95 58.719c.232.742.363 1.525.363 2.337v221.3c0 4.584-3.974 8.3-8.877 8.3H1.886a9.43 9.43 0 01-1.885-.191c1.08 3.445 4.478 5.962 8.51 5.962h107.55c4.902 0 8.877-3.717 8.877-8.3v-221.3c0-3.978-2.995-7.3-6.99-8.108" fill="url(#b)" opacity=".313" transform="translate(8.184 100.66)"/><path d="M107.25 113.19H19.967c-4.753 0-8.605-3.677-8.605-8.214v-23.19c0-4.536 3.852-8.213 8.605-8.213h87.283c4.751 0 8.603 3.677 8.603 8.213v23.19c0 4.537-3.852 8.214-8.603 8.214M107.25 168.37H19.967c-4.753 0-8.605-3.677-8.605-8.214v-23.19c0-4.536 3.852-8.213 8.605-8.213h87.283c4.751 0 8.603 3.677 8.603 8.213v23.19c0 4.537-3.852 8.214-8.603 8.214M107.25 223.56H19.967c-4.753 0-8.605-3.677-8.605-8.214v-23.19c0-4.536 3.852-8.213 8.605-8.213h87.283c4.751 0 8.603 3.677 8.603 8.213v23.19c0 4.537-3.852 8.214-8.603 8.214M107.25 278.03H19.967c-4.753 0-8.605-3.677-8.605-8.214v-23.19c0-4.536 3.852-8.213 8.605-8.213h87.283c4.751 0 8.603 3.677 8.603 8.212v23.191c0 4.537-3.852 8.214-8.603 8.214" fill="url(#b)" opacity=".313" transform="translate(8.184 100.66)"/><path d="M107.31 73.575a7.883 7.883 0 011.157 4.098v23.212c0 4.542-3.869 8.224-8.638 8.224H12.212c-.289 0-.575-.015-.856-.042 1.491 2.464 4.278 4.126 7.482 4.126h87.615c4.77 0 8.636-3.682 8.636-8.224V81.756c0-4.266-3.41-7.771-7.78-8.18M107.31 128.76a7.883 7.883 0 011.157 4.098v23.212c0 4.542-3.869 8.224-8.638 8.224H12.212c-.289 0-.575-.015-.856-.042 1.491 2.464 4.278 4.126 7.482 4.126h87.615c4.77 0 8.636-3.682 8.636-8.224v-23.213c0-4.266-3.41-7.771-7.78-8.18M107.31 183.94a7.879 7.879 0 011.157 4.098v23.212c0 4.542-3.869 8.224-8.638 8.224H12.212c-.289 0-.575-.015-.856-.042 1.491 2.464 4.278 4.126 7.482 4.126h87.615c4.77 0 8.636-3.682 8.636-8.224v-23.213c0-4.266-3.41-7.771-7.78-8.18M107.31 238.41a7.882 7.882 0 011.157 4.097v23.213c0 4.541-3.869 8.224-8.638 8.224H12.212c-.289 0-.575-.015-.856-.043 1.491 2.463 4.278 4.126 7.482 4.126h87.615c4.77 0 8.636-3.682 8.636-8.223v-23.213c0-4.265-3.41-7.771-7.78-8.181" fill="url(#b)" opacity=".313" transform="translate(8.184 100.66)"/><path d="M94.698 104.7H23.422c-4.153 0-7.522-3.197-7.522-7.139V85.663c0-3.942 3.369-7.139 7.522-7.139h71.276c4.153 0 7.521 3.197 7.521 7.14V97.56c0 3.942-3.368 7.139-7.521 7.139M94.698 159.89H23.422c-4.153 0-7.522-3.197-7.522-7.139v-11.898c0-3.943 3.369-7.139 7.522-7.139h71.276c4.153 0 7.521 3.196 7.521 7.14v11.897c0 3.942-3.368 7.139-7.521 7.139M94.698 215.07H23.422c-4.153 0-7.522-3.197-7.522-7.139v-11.898c0-3.942 3.369-7.139 7.522-7.139h71.276c4.153 0 7.521 3.197 7.521 7.14v11.897c0 3.942-3.368 7.139-7.521 7.139M94.698 268.83H23.422c-4.153 0-7.522-3.197-7.522-7.139v-11.898c0-3.942 3.369-7.139 7.522-7.139h71.276c4.153 0 7.521 3.197 7.521 7.14v11.897c0 3.942-3.368 7.139-7.521 7.139" fill="url(#b)" opacity=".313" transform="translate(8.184 100.66)"/><path d="M70.418 93.384c0-3.517-3.05-6.366-6.815-6.366-3.762 0-6.814 2.849-6.814 6.366 0 3.517 3.052 6.368 6.814 6.368 3.764 0 6.815-2.85 6.815-6.368M70.418 148.57c0-3.517-3.05-6.367-6.814-6.367-3.763 0-6.815 2.85-6.815 6.367s3.052 6.367 6.815 6.367c3.765 0 6.814-2.85 6.814-6.367M70.418 203.75c0-3.517-3.05-6.367-6.815-6.367-3.762 0-6.814 2.85-6.814 6.367s3.052 6.367 6.814 6.367c3.764 0 6.815-2.85 6.815-6.367M70.418 258.22c0-3.517-3.051-6.368-6.815-6.368-3.762 0-6.814 2.85-6.814 6.368s3.052 6.366 6.814 6.366c3.764 0 6.815-2.849 6.815-6.366" fill="url(#b)" opacity=".313" transform="translate(8.184 100.66)"/><path d="M65.718 87.017a6.595 6.595 0 011.29 3.905c0 3.684-3.001 6.67-6.702 6.67a6.692 6.692 0 01-2.76-.606 6.687 6.687 0 005.412 2.765c3.7 0 6.702-2.986 6.702-6.67 0-2.702-1.621-5.014-3.942-6.064M65.718 142.2a6.592 6.592 0 011.29 3.905c0 3.684-3.002 6.67-6.703 6.67a6.691 6.691 0 01-2.76-.606 6.686 6.686 0 005.414 2.765c3.701 0 6.702-2.986 6.702-6.67 0-2.7-1.622-5.014-3.943-6.064M65.718 197.38a6.592 6.592 0 011.29 3.905c0 3.684-3.001 6.67-6.702 6.67a6.692 6.692 0 01-2.76-.606 6.687 6.687 0 005.412 2.765c3.7 0 6.702-2.986 6.702-6.67 0-2.702-1.621-5.014-3.942-6.064M65.718 251.85a6.6 6.6 0 011.29 3.906c0 3.683-3.002 6.669-6.703 6.669a6.669 6.669 0 01-2.76-.607 6.681 6.681 0 005.412 2.766c3.702 0 6.704-2.986 6.704-6.669 0-2.702-1.622-5.015-3.943-6.065M102.81 64.379H28.937c-3.437 0-6.222-2.534-6.222-5.66h86.319c0 3.126-2.788 5.66-6.224 5.66" fill="url(#b)" opacity=".313" transform="translate(8.184 100.66)"/><g transform="translate(70.272 101.367)" opacity=".313"><mask id="e" fill="#fff"><use xlink:href="#d"/></mask><path d="M15.938 60.764H4.333c-2.314 0-4.19-1.753-4.19-3.916V3.915c0-2.163 1.876-3.916 4.19-3.916h11.605c2.314 0 4.194 1.753 4.194 3.916v52.933c0 2.163-1.88 3.916-4.194 3.916" fill="url(#b)" mask="url(#e)"/></g><path fill="url(#b)" opacity=".313" d="M67.389 61.549h12.115V0H67.389zM71.554 0v61.549M73.068 0v61.549M76.097 0v61.549M98.688 61.549H86.819c-2.367 0-4.286-1.776-4.286-3.967V3.966C82.533 1.776 84.452 0 86.82 0h11.869c2.367 0 4.289 1.776 4.289 3.966v53.616c0 2.191-1.922 3.967-4.289 3.967" transform="translate(8.184 100.66)"/><path d="M100.08 7.782H88.464c-.765 0-1.385-.649-1.385-1.448 0-1.935 1.5-3.504 3.35-3.504h7.685c1.85 0 3.351 1.57 3.351 3.504 0 .8-.622 1.448-1.385 1.448M82.533 9.904h20.447v-.707H82.533zM82.533 17.686h20.447v-4.952H82.533zM97.676 38.556c0 9.572-2.204 17.333-4.922 17.333s-4.921-7.76-4.921-17.333 2.202-17.333 4.92-17.333 4.923 7.76 4.923 17.333M51.546.396l10.457 4.713c2.088.941 2.95 3.26 1.927 5.178L38.887 57.26c-1.023 1.918-3.543 2.712-5.63 1.77L22.8 54.317c-2.086-.94-2.948-3.259-1.924-5.177l25.04-46.971C46.938.249 49.46-.544 51.546.397" fill="url(#b)" opacity=".313" transform="translate(8.184 100.66)"/><path d="M25.706 48.241l10.608 4.83c.698.32.987 1.103.644 1.753-.829 1.57-2.87 2.218-4.56 1.448l-7.017-3.195c-1.69-.77-2.388-2.668-1.559-4.238.342-.648 1.187-.917 1.884-.598M23.381 44.57l19.021 7.41-.664 1.079-19.023-7.41zM25.659 38.91l18.257 8.503-2.184 4.231-18.259-8.503zM42.128 21.266c4.74-8.518 10.739-14.492 13.4-13.342 2.66 1.15.973 8.985-3.767 17.503-4.74 8.517-10.738 14.492-13.397 13.342-2.661-1.15-.975-8.985 3.764-17.503" fill="url(#b)" opacity=".313" transform="translate(8.184 100.66)"/></g><g opacity=".602"><g transform="translate(410.09 182.16)" opacity=".313"><mask id="g" fill="#fff"><use xlink:href="#f"/></mask><path d="M95.674 195.97H7.294c-4.029 0-7.295-3.055-7.295-6.823V7.217C-.001 3.45 3.265.393 7.294.393h88.38c4.028 0 7.294 3.056 7.294 6.824v181.93c0 3.767-3.266 6.823-7.294 6.823" fill="url(#b)" mask="url(#g)"/></g><path d="M97.216 48.107c.191.611.3 1.257.3 1.927v182.44c0 3.778-3.277 6.843-7.318 6.843H1.553A7.772 7.772 0 010 239.158c.89 2.84 3.692 4.915 7.016 4.915H95.66c4.04 0 7.315-3.064 7.315-6.842V54.79c0-3.28-2.468-6.018-5.76-6.684" fill="url(#b)" opacity=".313" transform="translate(410.09 134.76)"/><path d="M88.298 93.384H16.195c-3.926 0-7.108-3.02-7.108-6.747V67.588c0-3.727 3.182-6.747 7.108-6.747h72.103c3.925 0 7.107 3.02 7.107 6.747v19.049c0 3.727-3.182 6.747-7.107 6.747M88.298 138.66H16.195c-3.926 0-7.108-3.02-7.108-6.747v-19.049c0-3.727 3.182-6.747 7.108-6.747h72.103c3.925 0 7.107 3.02 7.107 6.747v19.049c0 3.727-3.182 6.747-7.107 6.747M88.298 183.94H16.195c-3.926 0-7.108-3.02-7.108-6.747v-19.049c0-3.727 3.182-6.747 7.108-6.747h72.103c3.925 0 7.107 3.02 7.107 6.747v19.049c0 3.727-3.182 6.747-7.107 6.747M88.298 229.22H16.195c-3.926 0-7.108-3.02-7.108-6.747v-19.05c0-3.725 3.182-6.746 7.108-6.746h72.103c3.925 0 7.107 3.02 7.107 6.746v19.05c0 3.727-3.182 6.747-7.107 6.747" fill="url(#b)" opacity=".313" transform="translate(410.09 134.76)"/><path d="M88.231 60.841c.603.992.954 2.14.954 3.366v19.068c0 3.73-3.19 6.755-7.124 6.755H9.793c-.239 0-.474-.013-.707-.035 1.23 2.024 3.53 3.39 6.172 3.39h72.267c3.933 0 7.123-3.025 7.123-6.756V67.561c0-3.504-2.813-6.383-6.417-6.72M88.231 106.12c.603.992.954 2.14.954 3.366v19.068c0 3.73-3.19 6.755-7.124 6.755H9.793c-.239 0-.474-.013-.707-.035 1.23 2.024 3.53 3.39 6.172 3.39h72.267c3.933 0 7.123-3.025 7.123-6.756V112.84c0-3.504-2.813-6.383-6.417-6.72M88.231 151.4c.603.992.954 2.138.954 3.366v19.068c0 3.73-3.19 6.755-7.124 6.755H9.793c-.239 0-.474-.012-.707-.035 1.23 2.024 3.53 3.39 6.172 3.39h72.267c3.933 0 7.123-3.025 7.123-6.756V158.12c0-3.504-2.813-6.383-6.417-6.72M88.231 196.67c.603.992.954 2.139.954 3.366v19.068c0 3.73-3.19 6.754-7.124 6.754H9.793c-.239 0-.474-.012-.707-.034 1.23 2.023 3.53 3.389 6.172 3.389h72.267c3.933 0 7.123-3.025 7.123-6.755V203.39c0-3.503-2.813-6.383-6.417-6.72" fill="url(#b)" opacity=".313" transform="translate(410.09 134.76)"/><path d="M77.845 86.31H19.074c-3.425 0-6.202-2.592-6.202-5.788v-9.647c0-3.197 2.777-5.789 6.202-5.789h58.771c3.425 0 6.202 2.592 6.202 5.789v9.647c0 3.196-2.777 5.788-6.202 5.788M77.845 131.59H19.074c-3.425 0-6.202-2.592-6.202-5.788v-9.647c0-3.198 2.777-5.789 6.202-5.789h58.771c3.425 0 6.202 2.591 6.202 5.789v9.647c0 3.196-2.777 5.788-6.202 5.788M77.845 176.86H19.074c-3.425 0-6.202-2.592-6.202-5.788v-9.647c0-3.197 2.777-5.789 6.202-5.789h58.771c3.425 0 6.202 2.592 6.202 5.789v9.647c0 3.196-2.777 5.788-6.202 5.788M77.845 221.43H19.074c-3.425 0-6.202-2.592-6.202-5.788v-9.647c0-3.197 2.777-5.789 6.202-5.789h58.771c3.425 0 6.202 2.592 6.202 5.789v9.647c0 3.196-2.777 5.788-6.202 5.788" fill="url(#b)" opacity=".313" transform="translate(410.09 134.76)"/><path d="M58.303 76.758c0-2.931-2.542-5.305-5.679-5.305-3.135 0-5.679 2.374-5.679 5.305s2.544 5.306 5.68 5.306c3.136 0 5.678-2.375 5.678-5.306M58.303 122.04c0-2.93-2.541-5.306-5.678-5.306-3.136 0-5.68 2.375-5.68 5.306s2.544 5.306 5.68 5.306c3.137 0 5.678-2.375 5.678-5.306M58.303 168.02c0-2.93-2.542-5.306-5.679-5.306-3.135 0-5.679 2.375-5.679 5.306s2.544 5.306 5.68 5.306c3.136 0 5.678-2.375 5.678-5.306M58.303 212.59c0-2.931-2.542-5.306-5.68-5.306-3.134 0-5.678 2.375-5.678 5.306s2.544 5.305 5.679 5.305c3.137 0 5.679-2.374 5.679-5.305" fill="url(#b)" opacity=".313" transform="translate(410.09 134.76)"/><path d="M54.343 71.453a5.59 5.59 0 011.048 3.254c0 3.07-2.439 5.558-5.445 5.558a5.323 5.323 0 01-2.243-.505c.988 1.39 2.585 2.305 4.397 2.305 3.007 0 5.446-2.489 5.446-5.559a5.557 5.557 0 00-3.203-5.053M54.342 116.73a5.587 5.587 0 011.049 3.254c0 3.07-2.44 5.558-5.447 5.558a5.323 5.323 0 01-2.242-.505c.989 1.39 2.584 2.305 4.398 2.305 3.007 0 5.445-2.489 5.445-5.559a5.558 5.558 0 00-3.203-5.053M54.343 162.71a5.587 5.587 0 011.048 3.254c0 3.07-2.439 5.558-5.445 5.558a5.323 5.323 0 01-2.243-.505c.988 1.39 2.585 2.305 4.397 2.305 3.007 0 5.446-2.488 5.446-5.559a5.557 5.557 0 00-3.203-5.053M54.342 207.28a5.593 5.593 0 011.049 3.255c0 3.069-2.44 5.557-5.447 5.557a5.305 5.305 0 01-2.242-.505c.989 1.392 2.584 2.305 4.397 2.305 3.007 0 5.447-2.489 5.447-5.558a5.559 5.559 0 00-3.204-5.054M84.973 53.059H24.06c-2.834 0-5.13-2.217-5.13-4.952h71.174c0 2.735-2.298 4.952-5.131 4.952" fill="url(#b)" opacity=".313" transform="translate(410.09 134.76)"/><g transform="translate(461.578 135.467)" opacity=".313"><mask id="i" fill="#fff"><use xlink:href="#h"/></mask><path d="M12.987 50.166H3.531c-1.886 0-3.415-1.448-3.415-3.233v-43.7C.116 1.447 1.645 0 3.531 0h9.456c1.886 0 3.417 1.447 3.417 3.233v43.7c0 1.786-1.531 3.233-3.417 3.233" fill="url(#b)" mask="url(#i)"/></g><path fill="url(#b)" opacity=".313" d="M55.274 50.937h9.844V0h-9.844zM58.681 0v50.937M60.196 0v50.937M62.467 0v50.937M81.31 50.937h-9.671c-1.929 0-3.492-1.47-3.492-3.283V3.284C68.147 1.47 69.71 0 71.639 0h9.671c1.929 0 3.495 1.47 3.495 3.282v44.371c0 1.813-1.566 3.283-3.495 3.283" transform="translate(410.09 134.76)"/><path d="M82.88 6.367h-9.782c-.644 0-1.166-.556-1.166-1.241 0-1.658 1.263-3.004 2.822-3.004h6.47c1.559 0 2.823 1.346 2.823 3.004 0 .685-.524 1.241-1.167 1.241M68.146 8.49h16.658v-.708H68.146zM68.146 14.857h16.658v-4.245H68.146zM80.261 31.836c0 7.814-1.865 14.149-4.165 14.149s-4.164-6.335-4.164-14.149c0-7.814 1.863-14.149 4.164-14.149s4.165 6.335 4.165 14.149M42.398.325l8.654 3.872c1.728.773 2.44 2.677 1.595 4.253L31.922 47.035c-.847 1.576-2.933 2.227-4.66 1.455l-8.655-3.873c-1.726-.772-2.439-2.677-1.592-4.253L37.738 1.78c.846-1.576 2.934-2.228 4.66-1.455" fill="url(#b)" opacity=".313" transform="translate(410.09 134.76)"/><path d="M20.791 39.729l8.84 4.026c.581.265.822.918.536 1.46-.69 1.308-2.391 1.848-3.8 1.207l-5.847-2.663c-1.408-.641-1.99-2.223-1.3-3.531.285-.54.99-.765 1.57-.499M19.467 36.788l15.363 6.175-.536.899-15.364-6.175zM21.468 31.836l14.877 7.085-1.78 3.526-14.878-7.085zM35.104 17.399c3.829-6.97 8.674-11.857 10.823-10.916 2.148.94.786 7.351-3.043 14.32-3.829 6.968-8.672 11.857-10.82 10.916-2.15-.94-.788-7.351 3.04-14.32" fill="url(#b)" opacity=".313" transform="translate(410.09 134.76)"/></g><g transform="matrix(-1 0 0 1 645.971 384.999)"><mask id="k" fill="#fff"><use xlink:href="#j"/></mask><path d="M95.405 6.72C95.405 3.008 74.048 0 47.703 0S.001 3.008.001 6.72c0 3.714 21.357 6.722 47.702 6.722s47.702-3.008 47.702-6.722" fill="#CCDEF7" mask="url(#k)" opacity=".812"/></g><path transform="matrix(-1 0 0 1 593.022 267)" d="M0 89.498s3.417-47.003 31.892-36.879c0 0-31.133-33.987-31.892 36.879" fill="url(#l)"/><g transform="matrix(-1 0 0 1 627.762 329.912)"><mask id="o" fill="#fff"><use xlink:href="#m"/></mask><path d="M31.262 29.49S13.509-4.415 0 11.106c0 0 11.39-34.439 31.262 18.384" fill="url(#n)" mask="url(#o)"/></g><path transform="matrix(-1 0 0 1 663.072 267)" d="M65.493 86.545S53.795 45.163 36.448 56.716c0 0 19.363-35.252 29.045 29.829" fill="url(#p)"/><path transform="matrix(-1 0 0 1 603.632 267)" d="M6.825 80.408s.822-54.487 29.053-43.937c0 0-32.085-38.034-29.052 43.937" fill="url(#q)"/><path transform="matrix(-1 0 0 1 636.498 267)" d="M35.405 51.756s8.437-22.441 6.43-32.33C39.827 9.538 38.383 4.886 37.686.361c-.696-4.525-8.017 34.631-2.281 51.395" fill="url(#l)"/><path transform="matrix(-1 0 0 1 659.798 267)" d="M55.811 49.765s-1.51-7.988-5.284-9.496c-3.775-1.51-5.822-2.042-7.43-2.81-1.606-.769 5.049 10.569 12.714 12.306" fill="url(#n)"/><path transform="matrix(-1 0 0 1 664.746 267)" d="M57.52 39.634s-.65-14.605-4.19-19.781-5.489-7.501-6.982-9.919c-1.494-2.417 3.846 21.438 11.172 29.7" fill="url(#l)"/><path transform="matrix(-1 0 0 1 646.18 0)" fill="url(#r)" d="M329.83 175.04l-6.16-1.37-7.32 109.24 6.51-.28z"/><path d="M324.41 297.55l11.96-.786 1.792 4.105-35.672 1.82.668-3.741 12.414-.817 1.207-21.884 4.062.266 3.569 21.037z" fill="#5B0F56" opacity=".766"/><g transform="matrix(-1 0 0 1 328.316 172.959)"><mask id="t" fill="#fff"><use xlink:href="#s"/></mask><path fill="url(#l)" mask="url(#t)" d="M.37 109.94l15.427-.74.198-2.68 3.273.22 7.137-95.511-3.271-.213.495-6.654L8.633.236z"/></g><path fill="#81477D" d="M346.24 293.23l56.09 3.43 1.7 2.18-59.49 1.71z"/><path d="M418.42 270.89c.2-.998-2.927-3.89-5.848-4.365-2.925-.478-3.834.047-4.04 1.05-.202.99 1.455 1.295 4.379 1.766 2.919.479 5.308 2.549 5.509 1.549" fill="#E5956C"/><path d="M410.8 265.08c.89.567 1.47 1.26 1.553 2.035.248 2.3-2.975 2.153-7.157 2.504-2.294.193-4.046.323-5.202.02-.682.313-1.522.618-2.449.877-.836.236-1.639.403-2.347.5.164.184.322.386.471.603.847 1.255 1.05 2.55.458 2.887-.6.341-1.779-.399-2.628-1.656-.479-.7-.753-1.41-.798-1.962a.37.37 0 01-.123-.143c-.695.512-1.34.708-1.683.447-.534-.41-.116-1.8.937-3.11.905-1.122 1.98-1.815 2.61-1.73a18.58 18.58 0 012.445-.83c.573-.154 1.13-.279 1.65-.373a16.373 16.373 0 01-2.185-.508c-.697.353-1.577.708-2.556 1.012-2.519.776-4.745.925-4.967.337-.218-.588 1.646-1.7 4.169-2.48a17.79 17.79 0 012.344-.565c.28-.059.618-.1 1.002-.12.188-.013.363-.019.524-.016.755-.007 1.64.052 2.578.183 1.141.156 2.173.395 2.968.666a14.796 14.796 0 013.894-.025c-.507-.71-.726-1.285-.771-1.736a9.041 9.041 0 01-1.183-.19c-1.774-.405-3.083-1.234-2.937-1.839.145-.615 1.698-.78 3.465-.379 1.482.343 2.645.98 2.893 1.537.831.336 1.744.895 2.34 1.555.71.79.825 1.752.685 2.499zm-12.392 2.898a6.029 6.029 0 01-.06-.786c-.25.078-.509.153-.775.225a18.5 18.5 0 01-2.823.538c-.181.467-.482.99-.88 1.506.745-.389 1.759-.78 2.907-1.1a18.895 18.895 0 011.631-.383z" fill="#E5956C"/><path d="M409.16 453.5c-50.799-24.033-80.208-10.451-80.208-27.682s-4.736-34.717 80.208-34.717 153.81 13.969 153.81 31.2-103.01 55.232-153.81 31.2z" fill="#CCDEF7" opacity=".551"/><path d="M182.08 405.48c59.951 23.702 94.659 10.308 94.659 27.302s5.59 34.24-94.659 34.24C81.83 467.022.56 453.245.56 436.251s121.56-54.473 181.52-30.771z" fill="#CCDEF7" opacity=".308"/><path d="M395.68 279.82c-.124.823-.735 1.96-1.679 3.058-.776.901-1.472 1.508-2.083 1.899-.001.76-1.274 1.9-3.091 2.704-2.053.901-4.013 1.03-4.385.292-.376-.743.987-2.07 3.029-2.976.493-.216.98-.387 1.443-.513-.034-.64.15-1.553.504-2.46-1.227.385-2.305.697-3.24.88a21.81 21.81 0 01-2.232 1.035c-1.27.506-2.49.867-3.504 1.06a8.827 8.827 0 01-.58 1.51c.816 1.989.942 3.702.242 4.003-.467.204-1.203-.27-1.958-1.168-1.786 2.45-3.753 4.061-4.462 3.63-.727-.455.16-2.917 1.99-5.507.242-.344.49-.673.737-.983-.39-.88-.648-1.719-.766-2.423a.449.449 0 01-.147-.139c-.11-.171-.078-.412.076-.702.01-.554.159-.94.459-1.067a.679.679 0 01.438-.018c.259-.245.56-.502.898-.764-.073-.071-.147-.144-.22-.218-1.532-1.565-2.246-3.272-1.6-3.825.15-.127.358-.182.609-.171.984-.546 2.863-1.045 5.056-1.279a22.822 22.822 0 012.27-.137c.734-.472 1.689-.904 2.902-1.295 4.067-1.313 8.95-1.046 11.152.675.309-.033.642-.058 1-.078 3.7-.2 8.44 2.612 8.522 3.938.081 1.328-3.492-.649-7.19-.455-.602.033-1.162.062-1.678.083-.523.554-1.4.995-2.512 1.41zm-14.262-1.08l.005-.103a22.67 22.67 0 01-2.133.118 9.996 9.996 0 01.678.722c.493-.273.98-.52 1.45-.736z" fill="#FDBB91"/><path transform="matrix(-1 0 0 1 914.86 0)" d="M499.77 263.83c-27.994 9.812-37.975 26.389-78.397-3.852-7.636 4.518-9.137 9.18-7.78 15.593 50.231 27.678 56.82 7.445 88.124-2.338-.427-3.963-1.015-6.411-1.948-9.403" fill="url(#u)"/><g transform="matrix(-1 0 0 1 430.538 265.64)"><mask id="w" fill="#fff"><use xlink:href="#v"/></mask><path d="M9.852.179l3.377 8.727-2.765.982C7.697 2.122 6.986 2.79.444 4.006L9.852.179z" mask="url(#w)"/></g><path transform="matrix(-1 0 0 1 831.84 0)" d="M418.64 261.39l-9.005 4.064 2.458 7.347c.509 1.515 2.138 2.446 3.811 2.176l6.307-1.016-3.57-12.57z" fill="url(#u)"/><path d="M414.33 272.15c0-.862.747-1.56 1.669-1.56s1.668.698 1.668 1.56c0 .86-.747 1.558-1.668 1.558s-1.669-.698-1.669-1.558" fill="#2D9EF0"/><path fill="#9C4E1D" d="M314.05 398.64l5.18 1.71-4.32 11.4-5.18-1.72zM342.9 399.11l5.48-.47 1.14 12.13-4.75-1.4z"/><path fill="#6C3907" d="M290.298 304.672l134.183-4.367-2.003 13.722-129.51-.624z"/><path fill="#B86E3B" d="M287.526 301.346l146.586-5.286.21 5.145-146.586 5.284z"/><path fill="#6C3907" d="M389.649 410.57h-6.509v-98.239h6.509z"/><path fill="#B86E3B" d="M287.648 301.346l146.583-5.286.093 2.253-146.586 5.284z"/><path fill="#6C3907" d="M292.018 306.48l-145.257-6.184 2.003 13.722 147.144-.608z"/><path fill="#B86E3B" d="M287.688 301.196l-150.56-5.145-.211 5.145 153.38 5.284z"/><path fill="#6C3907" d="M181.596 410.561h6.5v-98.239h-6.5z"/><path fill="#B86E3B" d="M283.598 301.337l-146.588-5.286-.092 2.253 146.59 5.284z"/><path d="M71.462 234.81v-41.663h-9.575v41.663l-31.12 14.515 2.474 4.663s33.736-17.559 68.12 0l4.368-3.566-34.267-15.612z" fill="url(#x)" transform="translate(55.42 170.11)"/><path d="M69.039 213.67h-6.123c-1.865 0-3.375-1.434-3.375-3.204V196.36c0-1.771 1.51-3.206 3.375-3.206h6.123c1.863 0 3.374 1.435 3.374 3.206v14.106c0 1.77-1.51 3.204-3.374 3.204" fill="url(#x)" transform="translate(55.42 170.11)"/><path d="M71.206 212.09H64.9c-1.919 0-3.475-1.45-3.475-3.238V194.6c0-.525.147-1.013.384-1.451-1.322.458-2.268 1.634-2.268 3.025v14.252c0 1.789 1.556 3.239 3.475 3.239h6.307c1.356 0 2.518-.732 3.09-1.789-.376.132-.78.214-1.207.214" fill="url(#x)" transform="translate(55.42 170.11)"/><path d="M89.878 197.4H45.105c-6.246 0-11.308-5.068-11.308-11.319h67.389c0 6.252-5.063 11.319-11.308 11.319" fill="url(#x)" transform="translate(55.42 170.11)"/><g transform="translate(80.13 419.86)"><mask id="z" fill="#fff"><use xlink:href="#y"/></mask><path d="M13.218 6.067c0-3.312-2.943-5.996-6.572-5.996S.075 2.755.075 6.067c0 3.312 2.942 5.997 6.57 5.997 3.63 0 6.573-2.685 6.573-5.997" fill="url(#x)" mask="url(#z)"/></g><g transform="translate(149.79 419.86)"><mask id="B" fill="#fff"><use xlink:href="#A"/></mask><path d="M13.178 6.067c0-3.312-2.888-5.996-6.453-5.996C3.163.07.274 2.755.274 6.067c0 3.312 2.889 5.997 6.451 5.997 3.565 0 6.453-2.685 6.453-5.997" fill="url(#x)" mask="url(#B)"/></g><path d="M105.31 191.03H31.181c-5.247 0-9.502-3.96-9.502-8.843 0-4.884 4.255-8.843 9.502-8.843h74.129c5.248 0 9.502 3.96 9.502 8.843s-4.254 8.843-9.502 8.843" fill="url(#x)" transform="translate(55.42 170.11)"/><path d="M114.59 183.94a8.07 8.07 0 00.22-1.857c0-4.825-4.278-8.738-9.557-8.738H32.278c17 20.246 54.1 13.765 82.312 10.595" fill="url(#C)" opacity=".385" transform="translate(55.42 170.11)"/><path d="M15.883 87.628l6.532 65.765c.29 2.926-2.069 5.515-5.27 5.78-3.201.265-6.033-1.892-6.324-4.818L4.292 88.59c-.292-2.927 2.069-5.515 5.27-5.779 3.2-.266 6.031 1.89 6.322 4.817" fill="url(#x)" transform="translate(55.42 170.11)"/><g transform="translate(55.9 281.2)"><mask id="E" fill="#fff"><use xlink:href="#D"/></mask><path d="M25.278 70.892c-.17 1.214-1.368 2.069-2.676 1.911C9.54 71.224-.174 60.818.002 48.595L2.513 5.02C2.667 2.324 5.089.222 8 .258L5.213 48.66c-.141 9.769 7.622 18.086 18.063 19.347 1.307.157 2.229 1.268 2.059 2.482l-.057.401z" fill="url(#x)" mask="url(#E)"/></g><path d="M65.611 4.262s10.967.575 15.419 11.156c4.455 10.58 9.555 7.02 9.555 7.02s-4.452 12.44-16.937 4.822c-12.484-7.62-8.037-22.998-8.037-22.998" fill="url(#F)" transform="translate(55.42 170.11)"/><path d="M61.089 60.151s10.557 5.36 11.888 7.927c1.331 2.568-4.68 3.392-4.68 3.392s-10.988-2.427-7.208-11.319" fill="url(#l)" transform="translate(55.42 170.11)"/><path d="M190.59 275.97c2.771-1.2 5.754-2.437 6.457-2.526 1.388-.175 12.028.614 12.676.614.647 0 6.754 4.39 7.586 6.057.833 1.667.833 5.266 0 5.354-.832.088-1.202-3.423-1.202-3.423l-3.331-2.6-1.943-.56s2.591 3.95 2.591 4.652c0 .704.184 4.827-.463 4.827-.648 0-1.11-2.544-1.295-3.861-.186-1.317-3.424-3.61-3.424-3.61s2.314 3.873 2.22 4.751c-.092.878.28 3.423-.739 3.336-1.018-.088-1.48-3.424-1.48-3.424s-1.758-2.897-2.498-3.335c-.326-.194-1.943-.046-3.952.119l-.149.1c-4.27.509-10.123 2.353-14.6 3.033l-9.744 1.886-13.583 2.134c-4.57.7-9.01 1.418-13.815 2.032l-.926.113-.47.056-.648.046-.65.042-.327.019-.162.008-.041.003-.12-.003-.509-.032a9.65 9.65 0 01-1.014-.14l-.467-.102-.287-.08c-.373-.108-.782-.25-1.103-.383-.437-.186-1-.463-1.247-.613-1.255-.728-1.854-1.226-2.498-1.722a40.77 40.77 0 01-1.615-1.373c-1.946-1.748-3.559-3.393-5.167-5.063-3.184-3.326-6.158-6.654-9.098-10.004-5.866-6.713-11.497-13.432-17.113-20.326-3.446-4.231-2.522-10.238 2.063-13.418 4.584-3.18 11.097-2.328 14.543 1.903.23.284.443.577.635.875l.025.042c4.581 7.155 9.344 14.365 14.187 21.37 2.429 3.501 4.896 6.978 7.408 10.276 1.245 1.634 2.537 3.262 3.724 4.6l.808.877c.194.219.458.424.164.273-.015.006-.314-.165-.5-.22-.19-.082-.464-.181-.703-.242l-.548-.128a6.469 6.469 0 00-.803-.111l-.403-.015c-.097-.002-.066 0-.066 0h.064l.104.003.208.01.21.019.385-.007.787-.015c4.325-.107 8.987-.366 13.522-.594l13.727-.735 13.766-.725.841-.04z" fill="#F3C8BC"/><path d="M74.393 71.229s7.214 4.549 6.715 16.311c-.5 11.762 2.194 48.876 5.383 53.335s-19.307 7.241-22.522 2.126c-3.213-5.119-25.39-98.191 10.424-71.771" fill="url(#G)" transform="translate(55.42 170.11)"/><path d="M90.202 244.534s2.533-7.367 7.139-11.522c4.605-4.156 5.004-8.572-1.898-18.753-8.811-12.998-13.053-38.595 10.72-41.692 23.775-3.097 27.009 17.469 27.009 17.469l-.28 5.292s3.318 4.701 5.155 5.747c1.838 1.045-3.47 2.723-3.47 2.723s1.701 2.534 1.054 2.928c-.648.396-1.418 1.042-1.418 1.042s2.45 1.394 1.293 2.302c-1.156.908-1.853 3.282-1.853 3.282s.612 4.097-1.25 4.992c-.943.454-6.997 1.032-11.415-.223-3.912-1.11-6.08 20.932 6.058 29.209 10.748 7.33-33.14 1.31-36.844-2.797" fill="#FCD6CB"/><path d="M105.22 309.03s14.066-3.526 85.645 16.33c2.372.658 6.333 4.065 7.14 6.505 2.39 7.234-13.22 48.242-21.71 70.083-5.125 13.184-5.455 6.087-9.548 6.188-5.955.149 6.058-21.337 4.619-37.808-1.678-19.207 3.807-19.39 7.482-25.841 0 0-76.907 8.84-73.629-35.457" fill="#F3C8BC"/><path d="M46.511 165.81c-14.906-2.736-24.851-15.778-22.1-28.981l4.89-48.443c.321-25.543 8.545-25.477 22.75-22.87l2.861 4.239c14.207 2.608 29.055 13.713 16.3 31.133l2.807 55.273c-1.621 7.786-10.142 12.838-18.93 11.224l-8.578-1.575z" fill="url(#H)" transform="translate(55.42 170.11)"/><path d="M84.909 314.26s24.13-17.472 93.59 14.515c2.274 1.047 4.215 2.843 5.592 5.126 8.704 14.434 41.457 69.03 44.006 77.577 2.943 9.864-9.17 2.171-27.15-23.955-6.38-9.272-25.566-21.14-31.115-34.124-.958-2.242-3.249-3.737-5.82-3.97-18.283-1.66-83.752-9.425-79.104-35.17" fill="#FCD6CB"/><path d="M159.54 245.16l5.753 12.368h1.995l-3.873-7.739s.355-3.801 5-4.456c4.643-.655-9.886-2.346-8.875-.173" fill="url(#I)" transform="translate(55.42 170.11)"/><path d="M129.26 153.57s-33.842-9.277-56.509-17.375c-25.715-9.187-48.385 4.451-48.385 4.451S1.454 192.983 89.533 178.63c0 0-.698-27.75 39.727-25.06z" fill="url(#J)" transform="translate(55.42 170.11)"/><path d="M106.52 246.37l4.629 11.779 1.84.094-3.148-7.383s.539-3.52 4.864-3.91c4.323-.392-9-2.65-8.185-.58M158.65 235.49s-4.636 10.02 2.892 10.799c7.527.78 10.874 6.26 13.941 9.652 3.067 3.392 21.748 2.23 22.584 1.507.836-.724-13.662-8.031-13.662-8.031l-14.833-16.342-7.194-14.452s-7.817 4.299-15.007 5.178l11.279 11.689z" fill="url(#I)" transform="translate(55.42 170.11)"/><path d="M108.11 237.61s-6.043 8.971 1.118 10.072c7.159 1.102 10.052 6.432 12.794 9.782 2.744 3.348 20.686 3.16 21.526 2.52.842-.643-12.62-8.24-12.62-8.24l-9.552-13.015 6.235-11.517s-8.612-2.31-15.758-3.641l-3.743 14.039z" fill="url(#I)" transform="translate(55.42 170.11)"/><path d="M42.082 94.455c-8.942 1.5-8.348-16.196-8.348-16.196 3.405-6.898 16.712-10.498 16.712-5.398 0 5.098.578 20.094-8.364 21.594m28.953 22.185c-2.938-23.186-4.127-26.186-4.127-26.186s-1.48-20.666-5.44-22.793c-3.96-2.127-16.163-6.613-17.409-7.51 0 0-15.468 1.343-15.274 28.521.195 27.178-14.61 53.717-9.999 54.054 4.613.34 12.17 10.85 46.732 8.284 0 0 8.455-11.183 5.517-34.37" fill="url(#l)" transform="translate(55.42 170.11)"/><path d="M54.542 63.365s3.389-5.747 8.318-3.327c0 0 .717 8.318 2.493 10.284 1.775 1.966 5.546 42.18 5.546 42.18S67.32 93.008 59.72 84.69c0 0 .484-3.175 3.139-5.293s1.362-3.932 1.362-3.932-10.67-4.537-13.16-6.655c-2.49-2.116 3.48-5.444 3.48-5.444" fill="url(#K)" transform="translate(55.42 170.11)"/><path d="M105.659 242.893a903.84 903.84 0 0012.076 21.464 486.973 486.973 0 006.294 10.534c2.131 3.44 4.336 6.918 6.561 9.948a32.227 32.227 0 001.535 1.94l.226.264c.027.045.042.053-.213-.088-.142-.071-.323-.182-.87-.376a7.96 7.96 0 00-.482-.139 6.614 6.614 0 00-1.156-.164l-.236-.006h-.058c-.05 0-.213.027-.168.03h.168c.617-.022 1.706-.183 2.681-.337a147.18 147.18 0 003.107-.543c4.216-.785 8.518-1.673 12.82-2.536 4.31-.869 8.638-1.735 13.017-2.534 2.192-.398 4.395-.782 6.643-1.119 2.28-.322 4.462-.657 7.171-.722 2.039-.05 3.733 1.44 3.787 3.327.05 1.751-1.331 3.23-3.158 3.473l-.231.03c-1.678.227-3.81.74-5.822 1.269a202.486 202.486 0 00-6.17 1.742c-4.13 1.228-8.27 2.536-12.425 3.855-4.16 1.319-8.31 2.66-12.592 3.949a146.3 146.3 0 01-3.282.95c-1.163.308-2.214.612-3.773.887l-.649.1c-.227.033-.664.059-.99.074l-.263.009-.066.002-.272-.01a9.678 9.678 0 01-.561-.048c-.418-.053-.6-.098-.9-.168a7.429 7.429 0 01-.676-.197c-.805-.28-1.225-.52-1.6-.728-.713-.42-1.124-.739-1.504-1.033-.37-.292-.674-.554-.952-.803-1.096-.99-1.909-1.85-2.715-2.72-3.121-3.428-5.743-6.76-8.388-10.146a505.432 505.432 0 01-7.665-10.17 932.51 932.51 0 01-14.699-20.587c-2.83-4.076-1.556-9.508 2.848-12.129 4.404-2.621 10.268-1.44 13.098 2.637.178.256.34.516.484.781l.02.037z" fill="#FCD6CB"/><path d="M22.651 8.682s1.012-7.248-5-8.527C11.643-1.125 1.045 5.616 3.415 16.616 5.784 27.615 5.275 42.951 0 42.265c0 0 2.946 3.424 6.583-1.357 0 0-11.055 14.723-3.655 30.05 7.398 15.327.969 17.851-1.232 17.3 0 0 7.982 2.144 8.011-8.619.03-10.764-2.139-17.65.48-21.092 0 0-1.865 7.805 2.68 8.906 0 0-2.65-3.016.399-8.173 3.048-5.156 6.94-17.348 5.413-29.875C17.15 16.879 20.173 15.18 22.652 8.68" transform="translate(73.316 193.473)" fill="url(#L)"/><path d="M56.346 3.366c1.938-.983 3.932-1.42 5.853-1.147 10.355 1.464 9.535 5.933 9.535 5.933s4.815 11.418-3.19 16.915c-8.006 5.497-13.773 14.295-10.35 17.899 3.421 3.602 6.908.068 5.526-2.294 0 0 3.796 6.136-4.946 7.36-8.743 1.225-11.606-10.157-8.835-16.536 0 0-3.962 5.603-2.892 9.553 0 0-.57-2.315-1.244-4.485-.144 1.865-.273 3.6-.273 3.6l-1.552-2.5.774 5.538-2.076-1.214-.062 4.721c-10.14-9.662-16.733-25.096-7.274-37.197 9.46-12.1 24.2-8.182 24.2-8.182-1.05-.128-2.128.65-3.194 2.037z" fill="url(#M)" transform="translate(55.42 170.11)"/><path d="M62.57 59.586s-10.987-.52-17.665-4.388l-4.293 6.277s13.446 6.028 17.015 4.902c3.568-1.124 4.944-6.791 4.944-6.791" fill="url(#l)" transform="translate(55.42 170.11)"/><path d="M164.19 281.1s10.27-4.652 11.658-4.827c1.387-.175 12.028.613 12.676.613.647 0 6.754 4.39 7.586 6.058.833 1.667.833 5.266 0 5.354-.832.088-1.203-3.424-1.203-3.424l-3.33-2.6-1.943-.559s2.59 3.95 2.59 4.652c0 .703.185 4.827-.462 4.827-.649 0-1.11-2.544-1.296-3.862-.185-1.316-3.423-3.61-3.423-3.61s2.313 3.874 2.22 4.751c-.092.878.278 3.424-.74 3.336-1.018-.087-1.48-3.423-1.48-3.423s-1.759-2.898-2.498-3.336c-.74-.439-8.143.879-11.658.176-3.516-.702-8.883 2.107-10.27 1.667-1.388-.438-3.054-5.44 1.572-5.793" fill="#FCD6CB"/><path transform="rotate(2 -4661.728 1767.746)" d="M167.89 125.08l27.993-60.858c.337-.734 1.278-1.087 2.091-.788.813.301 1.201 1.148.863 1.882l-27.993 60.858c-.337.734-1.277 1.088-2.09.787-.812-.3-1.2-1.147-.864-1.881" fill="url(#N)"/><path transform="rotate(2 -4707.918 1797.39)" d="M171.15 127.59l-67.966.156c-1.713.004-3.113-1.267-3.109-2.823.004-1.556 1.41-2.834 3.123-2.837l67.966-.156c1.713-.004 3.113 1.267 3.109 2.823-.004 1.556-1.41 2.833-3.123 2.837" fill="url(#O)"/><g transform="matrix(-1 0 0 1 481.266 340.62)"><mask id="Q" fill="#fff"><use xlink:href="#P"/></mask><path d="M39.364 2.59L33.871.115.491 17.893c8.076 7.43 16.313 13.711 25.598 14.644 1.101-1.122 2.183-2.285 3.201-3.537 6.871-8.426 10.226-17.982 10.074-26.411" mask="url(#Q)"/></g><path fill="#FDBB91" d="M488.61 241.02l12.62-2.98 6.53 24.2-12.62 2.97z"/><path transform="matrix(-1 0 0 1 807.52 0)" d="M357.75 341.12c-1.955 7.963-7.662 13.87-17.12 17.719 5.806 1.272 16.593 3.412 32.362 6.42.994.288 2.371-.1 4.13-1.163 2.639-1.595 39.4-19.004 56.886-15.6 4.366 1.017 16.992.01 20.734 55.952 2.163.829 10.403 2.624 12.14 0-.089-3.242-.522-72.633-31.078-75.381-19.489-3.835-49.906 1.886-70.254 15.045-1.356-.09-3.956-1.087-7.801-2.991z" fill="url(#R)"/><path transform="matrix(-1 0 0 1 756.74 0)" d="M313.61 343.96c-1.252 8.188-2.658 13.89-4.217 17.109 3.833 1.278 12.509 2.472 15.979 3.83 3.771-1.184 34.697-15.797 52.835-17.393 9.161.54 26.814-1.702 39.208 22.41 8.262 16.075 14.292 28.993 18.089 38.755 6.075.39 10.028-1.027 11.86-4.251-2.426-6.035-26.811-77.924-67.34-71.128-9.183.334-29.325 2.792-56.088 14.214-3.647-1.25-7.089-2.431-10.326-3.545z" fill="url(#J)"/><path d="M470.37 293.22c-28.14 8.342-41.237-3.854-69.888-8.655-.07-3.982.263-6.477.922-9.55 30.623 6.055 45.097 19.062 78.684-3.074 4.575-9.159 8.546-12.705 20.235-14.087l6.976.5c3.453.25 6.321 2.6 7.041 5.764 6.353 27.91-4.762 57.56-28.634 93.191-6.259 9.343-43.006-.154-41.056-19.18 12.69-19.125 20.408-33.74 25.721-44.91z" fill="url(#u)"/><path transform="matrix(-1 0 0 1 1002.2 0)" fill="url(#S)" d="M511.34 255.87l-16.68-1.55-4.01 5.61 20.91.23z"/><g transform="matrix(-1 0 0 1 419.938 276.25)"><mask id="U" fill="#fff"><use xlink:href="#T"/></mask><path d="M10.212.409l2.338 9.669-2.838.155C7.877 1.658 6.922 2.85.03 3.373L10.212.408z" mask="url(#U)"/></g><path transform="matrix(-1 0 0 1 809.52 0)" d="M409.01 272.71l-10.347 3.12 1.473 8.255c.304 1.702 1.91 2.93 3.755 2.873l6.955-.213-1.836-14.035z" fill="url(#u)"/><path d="M405.16 284.57c0-.686.601-1.244 1.335-1.244.737 0 1.337.558 1.337 1.244 0 .688-.6 1.25-1.337 1.25-.734 0-1.335-.562-1.335-1.25" fill="#2D9EF0"/><path d="M466.552 225.7l-4.042-1.112c-9.164-2.527-2.55-15.126 3.926-22.052-1.357 8.314-1.308 14.086.116 23.165z" fill="#F97F5D"/><path d="M518.17 208.84c-1.884-18.827-16.448-32.946-32.531-31.542-23.716 2.402-20.708 36.551-20.042 47.155 1.886 18.827 10.788 22.421 26.868 21.015 16.078-1.404 27.588-17.803 25.705-36.629" fill="#FDBB91"/><g transform="matrix(-1 0 0 1 538.814 313.739)"><mask id="X" fill="#fff"><use xlink:href="#V"/></mask><path d="M10.763 90.623c3.338 19.025 22.698 15.592 75.101 15.281 28.387 0 68.008 3.907 67.089-11.227-2.671-43.973-48.185-44.765-76.101-49.588C64.274 42.702 29.822.094 11.726.09-.911.086-5.57 20.862 10.763 90.623" fill="url(#W)" mask="url(#X)"/></g><path transform="matrix(-1 0 0 1 994.48 0)" d="M469.28 396.76c3.188 19.024 91.433 16.059 58.329-30.563-22.469-17.466-48.651-56.416-62.525-44.599-10.647 9.068-4.428 36.564 4.196 75.162" fill="url(#Y)" opacity=".345"/><path d="M481.26 190.66s5.132 2.923 1.127 5.848c0 0 7.136.233 5.006-5.966-2.126-6.198-6.133.118-6.133.118" fill="#432718"/><path d="M519.13 188.84c.786-.143 1.288-.795 1.234-2.275.62.193 1.647 2.272.552 3.405 8.1 5.919 5.488 16.47 4.969 18.273a25.11 25.11 0 01-.013 3.535 34.416 34.416 0 01-1.136 8.805c-3.2 12.148-12.182 20.842-21.287 21.428 4.521-4.838 6.719-11.509 6.429-18.65-1.877 2.632-4.145 4.628-6.657 5.764-.129 3.458-3.157 6.039-6.292 4.84-.606-.158-1.195-.521-1.698-1.041a7.269 7.269 0 01-.21-.19l.017-.023a5.315 5.315 0 01-1.018-1.863 5.243 5.243 0 01-.249-1.624 12.93 12.93 0 01-.53-.242l.048-.105c-2.277 1.745-4.314 2.587-4.314 2.587 2.74-2.043 4.584-4.367 5.802-6.695.908-3.156 1.412-6.64 1.412-10.306 0-.995-.037-1.977-.11-2.942-1.473 3.657-3.922 6.098-3.922 6.098 2.385-4.116 2.845-8.093 2.444-11.475a23.67 23.67 0 01-1.659.045c-.878 4.505-2.764 7.718-2.764 7.718a27.9 27.9 0 001.254-7.8c-.136-.015-.27-.031-.399-.05-.538.84-1.224 1.656-2.058 2.451-2.351 2.24-3.406 1.71-3.165-1.591 1.325-6.039-.506-8.17-5.492-6.394-4.82 1.718-8.93-1.39-12.332-9.324a1.905 1.905 0 01-.605-1.161c-1.525.635-3.37.448-5.466-1.55 0 0 1.92.854 4.196-1.67a13.039 13.039 0 012.224-3.676c-3.12-.054-3.743-3.816-3.743-3.816 1.057 2.663 3.484 2.652 5.449 2.105 5.91-5.093 16.545-7.103 27.567-4.512 3.1.728 5.971 1.778 8.58 3.048a29.743 29.743 0 015.636 3.33c.615-3.497 5.594-2.39 5.594-2.39-5.35 3.333-1.105 6.223 1.71 7.933z" fill="url(#I)"/><path fill="#EFE19D" d="M358.61 297.32h-2.26v-4.09h2.26z"/><path d="M467.63 301.01s-1.336 13.409-12.351 22.298l12.351-22.298zM449.47 332.84s-3.005 8.734-3.005 9.67c0 .935-3.002-3.744 3.005-9.67" fill="#2D9EF0"/><g transform="matrix(-1 0 0 1 328.316 172.959)"><mask id="ab" fill="#fff"><use xlink:href="#aa"/></mask><path fill="url(#l)" mask="url(#ab)" d="M.37 109.94l15.427-.74.198-2.68 3.273.22 7.137-95.511-3.271-.213.495-6.654L8.633.236z"/></g><path fill="#5B0F56" opacity=".766" d="M314.65 253.15l2.24-.16.62 7.7-2.25.15zM318.77 252.67l2.25-.15.61 7.7-2.25.15z"/><path transform="matrix(-1 0 0 1 704.96 0)" d="M357.89 292.89c-.06 0-.123-.018-.184-.022l.404-9.556c2.243.137 4.029 2.217 4.029 4.784 0 2.651-1.9 4.798-4.249 4.794m.306-11.554l.145-3.464-16.34-.611-.93 21.817 16.343.608.207-4.846c.088.004.164.028.252.028 3.318.005 6.012-3.027 6.02-6.773.005-3.631-2.521-6.571-5.696-6.759" fill="url(#q)"/><path d="M469.41 212.22l1.476 8.982-.066.01.01.015-1.843.87-3.67-3.334-.02.004-.005-.027-.01-.009.006-.014-2.218-13.085.043-.006-.016-.025 2.185-1.781 3.849 6.33 29.722 4.25-.179 1.296-29.264-3.476zm-2.486-.747l-1.826-2.803 1.249 7.643.686-1.558.598 1.02-.707-4.302z" fill="url(#J)"/><path transform="matrix(-1 0 0 1 933.12 0)" fill="url(#S)" d="M468.54 208.02l-2.31 2.06-1.66 10.79 2.19-2.28z"/><path d="M501.15 222.09c.974-3.9 4.205-6.53 7.21-5.874 3.005.657 4.655 4.35 3.678 8.25-.974 3.9-4.202 6.53-7.209 5.872-3.007-.657-4.655-4.351-3.679-8.248" fill="#FDBB91"/><path d="M583.15 361h29.932s.848 24.144-8.552 29.671a2.15 2.15 0 01-1.089.293H592.792c-.384 0-.76-.1-1.09-.293-9.4-5.527-8.551-29.671-8.551-29.671" fill="url(#l)"/><g><path d="M27.86 0s3.057 5.36 2.484 10.898c-.573 5.539-3.63 3.93-6.687 4.288-3.056.357-2.675-1.07-2.675-1.07-.068.253-1.605.665-1.83.747a29.511 29.511 0 01-4.923 1.311c-2.125.374-4.302.47-6.458.346-1.758-.101-4.617-.114-6.131-1.01-2.394-1.417-2.03-4.11.212-5.387 4.394-2.5 10.943-1.547 13.126-4.763S19.07 0 19.07 0s6.688 1.072 8.79 0" fill="url(#I)" transform="rotate(19 -1055.23 1070.031)"/><path d="M286.965 415.535c.122.464.37.938.762 1.395 1.139 1.339 3.834 2.281 5.464 2.95 1.997.818 4.087 1.435 6.215 1.775 1.683.267 3.386.39 5.08.363.238-.005 1.827.105 1.972-.114-.001.002-.825 1.226 2.18 1.884 3.004.657 5.37 3.172 7.715-1.876.21-.455.394-.916.55-1.378-2.85.036-16.083.14-19.914-1.01-3.666-1.1-8.137-2.41-10.023-3.989" fill="#731100"/></g><g transform="translate(442.65 60.472)" fill="url(#b)" opacity=".926"><path d="M56.789 26.53C56.789 11.878 44.076 0 28.395 0 12.713 0 0 11.878 0 26.53c0 14.651 12.713 26.529 28.395 26.529 15.681 0 28.394-11.878 28.394-26.529" opacity=".313"/><path d="M52.433 26.432c0-12.473-10.701-22.584-23.9-22.584s-23.9 10.112-23.9 22.584c0 12.473 10.7 22.583 23.9 22.583s23.9-10.11 23.9-22.583" opacity=".313"/><path d="M30.186 6.523c0 2.424-.762 4.389-1.702 4.389s-1.703-1.965-1.703-4.389c0-2.424.762-4.388 1.703-4.388.94 0 1.702 1.964 1.702 4.388M30.186 46.896c0 2.424-.762 4.389-1.702 4.389s-1.703-1.965-1.703-4.389c0-2.424.762-4.388 1.703-4.388.94 0 1.702 1.964 1.702 4.388M49.847 28.32c-2.566 0-4.644-.721-4.644-1.61 0-.888 2.078-1.609 4.644-1.609 2.564 0 4.644.72 4.644 1.61 0 .888-2.08 1.608-4.644 1.608M7.121 28.32c-2.565 0-4.644-.721-4.644-1.61 0-.888 2.08-1.609 4.644-1.609 2.565 0 4.644.72 4.644 1.61 0 .888-2.08 1.608-4.644 1.608M44.794 13.573c-1.814 1.714-3.823 2.594-4.488 1.965-.666-.628.265-2.526 2.08-4.24 1.812-1.714 3.822-2.594 4.487-1.966.665.629-.266 2.527-2.08 4.241M14.582 42.121c-1.814 1.714-3.823 2.594-4.489 1.965-.665-.628.267-2.526 2.08-4.24 1.814-1.714 3.823-2.594 4.488-1.965.665.628-.266 2.527-2.08 4.24M42.386 42.121c-1.815-1.713-2.745-3.612-2.08-4.24.665-.629 2.674.251 4.488 1.965 1.813 1.714 2.745 3.612 2.08 4.24-.666.629-2.676-.25-4.489-1.965M12.174 13.573c-1.813-1.714-2.745-3.612-2.08-4.24.666-.629 2.675.251 4.488 1.965 1.814 1.714 2.745 3.612 2.08 4.24-.665.629-2.674-.25-4.488-1.965" opacity=".975"/><path d="M31.226 26.432c0-1.405-1.206-2.544-2.693-2.544s-2.693 1.14-2.693 2.544c0 1.406 1.206 2.545 2.693 2.545s2.693-1.14 2.693-2.545" opacity=".729"/><path opacity=".729" d="M27.277 25.752l11.424-7.673-10.25 9.033z"/><path opacity=".729" d="M21.363 20.858l7.125 4.923-1.247 1.3z"/></g><path d="M197.64 70.593c-17.105 3.212-32.221-10.899-28.781-26.869 1.938-8.986 9.587-16.118 19.217-17.9 17.062-3.16 32.122 10.9 28.738 26.83-1.908 8.99-9.548 16.132-19.173 17.94m37.102-13.498h7.129c.938 0 1.697-.709 1.697-1.584V40.074c0-.875-.76-1.584-1.697-1.584h-7.129a35.156 35.156 0 00-.694-2.416l6.175-3.328c.811-.438 1.09-1.406.62-2.164l-8.268-13.369c-.467-.758-1.505-1.017-2.317-.58l-6.184 3.333a50.66 50.66 0 00-1.886-1.764c-.001 0-.003 0-.004-.002l3.57-5.773c.468-.757.19-1.725-.62-2.163l-14.322-7.719c-.81-.438-1.85-.178-2.317.58l-3.568 5.77a41.32 41.32 0 00-2.583-.649h-.002v-6.66c0-.876-.76-1.585-1.697-1.585H184.11c-.937 0-1.697.71-1.697 1.585v6.66c-.873.188-1.736.407-2.585.648l-3.568-5.77c-.467-.757-1.506-1.017-2.317-.579l-14.32 7.72c-.812.437-1.09 1.405-.622 2.162l3.57 5.773-.002.002a50.737 50.737 0 00-1.888 1.764l-6.184-3.333c-.81-.437-1.85-.178-2.318.58l-8.268 13.369c-.469.758-.19 1.727.622 2.164l6.175 3.329c-.258.79-.492 1.602-.693 2.415h-7.131c-.937 0-1.696.71-1.696 1.584v15.438c0 .875.76 1.584 1.696 1.584h7.13c.202.814.436 1.621.695 2.413v.002l-6.176 3.33c-.812.437-1.09 1.405-.622 2.163l8.268 13.37c.469.757 1.507 1.017 2.318.58l6.183-3.334a49.829 49.829 0 001.89 1.765h.001l-3.57 5.773c-.468.758-.19 1.727.622 2.164l14.32 7.72c.812.437 1.85.178 2.318-.58l3.567-5.769c.848.242 1.712.46 2.585.648v6.66c0 .874.76 1.583 1.697 1.583h16.536c.938 0 1.697-.709 1.697-1.583v-6.659h.003a41.316 41.316 0 002.583-.649l3.567 5.769c.468.758 1.506 1.017 2.317.58l14.321-7.72c.811-.437 1.089-1.406.621-2.164l-3.568-5.771.002-.002a50.721 50.721 0 001.888-1.764l6.182 3.333c.812.437 1.85.178 2.317-.58l8.269-13.37c.47-.758.19-1.726-.62-2.164l-6.177-3.33.001-.002c.258-.79.493-1.598.694-2.412" fill="#C7E1F9" opacity=".163"/><g opacity=".873"><g filter="url(#ac)" transform="translate(167.04 12.365)"><g transform="translate(102.74)"><mask id="ae" fill="#fff"><use xlink:href="#ad"/></mask><path d="M34.33 42.724c-10.329 1.936-19.457-6.57-17.38-16.195 1.17-5.416 5.79-9.715 11.605-10.789 10.304-1.904 19.398 6.57 17.354 16.172-1.152 5.419-5.766 9.723-11.578 10.813m22.941-7.822h4.35c.571 0 1.035-.432 1.035-.965v-9.4c0-.533-.464-.965-1.036-.965h-4.349c-.123-.495-.266-.99-.423-1.471l3.767-2.027c.495-.266.665-.856.378-1.317l-5.044-8.141c-.285-.462-.918-.62-1.413-.353l-3.773 2.029a30.887 30.887 0 00-1.151-1.074l-.002-.001 2.178-3.516c.285-.46.116-1.05-.38-1.317l-8.736-4.7c-.495-.267-1.128-.109-1.414.353L39.083 5.55a25.25 25.25 0 00-1.576-.395h-.001V1.101c0-.533-.464-.965-1.036-.965H26.382c-.572 0-1.035.432-1.035.965v4.055c-.533.115-1.06.248-1.577.395l-2.177-3.513c-.285-.462-.918-.62-1.413-.353l-8.737 4.7c-.495.267-.665.856-.379 1.317l2.178 3.516-.001.001c-.394.349-.778.707-1.152 1.074l-3.773-2.03c-.495-.266-1.128-.108-1.414.354l-5.044 8.14c-.286.462-.116 1.052.38 1.318l3.766 2.027c-.157.482-.3.976-.423 1.471h-4.35c-.571 0-1.035.432-1.035.964v9.401c0 .533.464.965 1.035.965h4.35c.123.496.266.987.424 1.469v.001l-3.768 2.028c-.495.266-.665.856-.38 1.318l5.045 8.14c.286.462.92.62 1.414.354l3.772-2.03c.374.368.759.726 1.153 1.075l-2.177 3.515c-.286.462-.116 1.052.379 1.318l8.737 4.7c.495.267 1.128.109 1.413-.353l2.177-3.512c.517.147 1.044.28 1.577.394v4.056c0 .532.463.964 1.035.964H36.47c.572 0 1.036-.432 1.036-.964V53.32h.001a25.243 25.243 0 001.576-.395l2.176 3.512c.286.462.92.62 1.414.353l8.737-4.7c.495-.266.664-.856.379-1.318l-2.177-3.514v-.001c.394-.35.779-.707 1.153-1.074l3.772 2.03c.495.265 1.128.107 1.413-.354l5.044-8.141c.287-.462.117-1.052-.378-1.318l-3.768-2.028v-.001c.158-.482.301-.973.424-1.47" fill="#C7E1F9" mask="url(#ae)" opacity=".408"/></g><path d="M103.85 162.66c-10.33 1.937-19.458-6.57-17.38-16.195 1.17-5.416 5.789-9.715 11.605-10.79 10.303-1.904 19.397 6.57 17.354 16.172-1.153 5.419-5.767 9.724-11.578 10.813m22.941-7.822h4.35c.57 0 1.035-.432 1.035-.964v-9.4c0-.534-.464-.966-1.036-.966h-4.349c-.124-.495-.266-.99-.423-1.47l3.766-2.028c.496-.266.665-.856.38-1.317l-5.045-8.141c-.285-.462-.919-.62-1.414-.353l-3.772 2.029a30.382 30.382 0 00-1.151-1.073l-.002-.002 2.178-3.516c.285-.46.116-1.05-.38-1.317l-8.736-4.7c-.496-.266-1.128-.109-1.414.353l-2.177 3.513a25.145 25.145 0 00-1.576-.395h-.001v-4.056c0-.532-.463-.964-1.035-.964H95.902c-.572 0-1.035.432-1.035.964v4.056c-.533.115-1.06.248-1.577.395l-2.177-3.513c-.286-.462-.919-.62-1.414-.353l-8.737 4.7c-.495.267-.664.856-.378 1.317l2.178 3.516-.002.002c-.394.348-.777.706-1.152 1.073l-3.772-2.03c-.495-.266-1.128-.108-1.414.354l-5.044 8.14c-.286.462-.117 1.052.379 1.318l3.767 2.027c-.157.482-.3.976-.423 1.471h-4.35c-.572 0-1.036.432-1.036.965v9.4c0 .533.464.965 1.036.965h4.35c.122.496.266.987.424 1.469v.002l-3.769 2.027c-.495.266-.664.856-.378 1.318l5.044 8.141c.286.461.918.62 1.414.353l3.771-2.03a31.993 31.993 0 001.154 1.076l-2.177 3.514c-.286.462-.117 1.052.378 1.318l8.737 4.7c.495.267 1.128.109 1.414-.353l2.176-3.511c.518.146 1.045.28 1.577.394v4.055c0 .532.464.964 1.036.964h10.088c.571 0 1.035-.432 1.035-.964v-4.055h.001a25.273 25.273 0 001.577-.394l2.175 3.511c.286.462.92.62 1.415.353l8.737-4.7c.494-.266.664-.856.379-1.318l-2.178-3.514h.002c.393-.35.777-.708 1.151-1.075l3.772 2.029c.495.267 1.129.108 1.414-.353l5.044-8.141c.286-.462.117-1.052-.379-1.318l-3.768-2.027v-.002c.159-.482.301-.973.425-1.469" fill="#C7E1F9" opacity=".408"/><use fill="#000" filter="url(#af)" xlink:href="#ag"/><use fill="#FFF" xlink:href="#ag"/><path d="M217.64 22.137l-199.21.383c-2.906.006-5.256 2.206-5.25 4.913l.009 4.263 209.74-.403-.01-4.264c-.005-2.707-2.366-4.898-5.271-4.892" fill="#C2BAEF"/><path d="M43.734 147.08l-23.477.045c-.946.002-1.714-.71-1.716-1.592l-.001-.476c-.002-.882.763-1.597 1.71-1.599l23.475-.045c.946-.002 1.715.71 1.717 1.592l.001.476c.003.881-.763 1.597-1.709 1.599" fill="#fff"/><path d="M79.291 119.67H18.228c-1.123 0-2.034-.85-2.034-1.896v-14.222c0-1.046.911-1.895 2.034-1.895h61.063c1.124 0 2.034.849 2.034 1.895v14.222c0 1.047-.91 1.896-2.034 1.896" fill="#7ED321" opacity=".454"/><use fill="#000" filter="url(#ah)" xlink:href="#ai"/><use fill="#BADBF9" xlink:href="#ai"/><use fill="#000" filter="url(#aj)" xlink:href="#ak"/><use fill="#FFF" xlink:href="#ak"/><path d="M24.159 27.3c.002.872-.755 1.58-1.691 1.583-.936.001-1.697-.704-1.699-1.576-.002-.873.755-1.581 1.692-1.583.936-.002 1.696.703 1.698 1.576M31.335 27.286c.002.872-.755 1.58-1.692 1.583-.935.001-1.696-.704-1.698-1.577-.002-.872.755-1.58 1.692-1.582.936-.002 1.696.703 1.698 1.576M38.51 27.272c.002.873-.755 1.581-1.691 1.583-.936.002-1.697-.704-1.699-1.576-.002-.873.755-1.581 1.692-1.583.936-.002 1.696.704 1.698 1.576" fill="#fff"/><g opacity=".888"><use fill="#000" filter="url(#al)" xlink:href="#am"/><use fill="#D3B8FF" xlink:href="#am"/></g></g><path d="M366.7 141.225h-74.072c-1.124 0-2.034-.85-2.034-1.897v-36.225c0-1.05.91-1.899 2.034-1.899H366.7c1.123 0 2.034.85 2.034 1.899v36.225c0 1.047-.91 1.897-2.034 1.897" fill="#D1EBFF" opacity=".525"/><path d="M206.35 132.83h-74.072c-1.123 0-2.034-.85-2.034-1.897v-40.29c0-1.049.91-1.898 2.034-1.898h74.072c1.124 0 2.034.85 2.034 1.898v40.29c0 1.047-.91 1.897-2.034 1.897" fill="url(#an)" transform="translate(167.04 12.365)"/><path d="M207.578 71.404l-17.814.034c-.795.002-1.44-.598-1.443-1.34v-.4c-.002-.742.64-1.345 1.437-1.346l17.813-.035c.795 0 1.44.6 1.442 1.341l.002.4c0 .742-.642 1.345-1.437 1.346" fill="#C2BAEF"/><path d="M199.936 98.977l-10.171.02c-.795.001-1.44-.599-1.443-1.341v-.4c-.002-.742.64-1.344 1.437-1.346l10.17-.02c.796-.001 1.441.6 1.443 1.341l.001.4c.001.742-.642 1.345-1.437 1.346" fill="#24C030" opacity=".713"/><path d="M230.498 76.789l-40.734.078c-.795.002-1.44-.598-1.442-1.34l-.001-.4c-.002-.742.641-1.345 1.436-1.346l40.734-.079c.795-.001 1.441.6 1.443 1.341v.4c.002.742-.641 1.345-1.436 1.346" fill="#C2BAEF"/><path d="M243.411 84.599l-54.563.105c-.29 0-.525-.218-.525-.488l-.001-.146c0-.27.234-.49.523-.49l54.563-.106c.29 0 .526.218.526.489v.146c.001.27-.233.49-.523.49M243.411 82.129l-54.563.105c-.29 0-.525-.218-.525-.488l-.001-.146c0-.27.234-.49.523-.49l54.563-.106c.29 0 .526.218.526.489v.146c.001.27-.233.49-.523.49M243.412 87.069l-54.563.105c-.29 0-.525-.218-.525-.488l-.001-.146c0-.27.234-.49.523-.49l54.563-.106c.29 0 .525.218.526.489v.146c.001.27-.233.49-.523.49M243.414 89.54l-54.563.105c-.29 0-.525-.218-.525-.488l-.001-.146c0-.27.234-.49.523-.49l54.563-.106c.29 0 .525.218.526.489v.146c.001.27-.234.49-.523.49M230.706 92.022l-41.853.08c-.29.001-.525-.217-.526-.487v-.147c0-.27.234-.49.523-.49l41.853-.08c.29-.001.526.217.526.488v.146c.001.27-.233.49-.523.49" fill="#C2BAEF" opacity=".558"/><path d="M295.01 155.715l-35.028.067c-.29 0-.525-.218-.525-.488l-.001-.146c0-.27.234-.49.523-.49l35.028-.068c.29 0 .525.218.526.488v.146c.001.27-.234.49-.523.491M295.01 153.245l-35.028.067c-.29 0-.525-.217-.525-.488l-.001-.146c0-.27.234-.49.523-.49l35.028-.068c.29 0 .525.219.526.489v.146c.001.27-.234.49-.523.49M295.01 158.185l-35.028.067c-.29 0-.525-.218-.525-.488v-.146c-.001-.27.233-.49.522-.49l35.028-.068c.29 0 .526.218.526.489v.145c.001.271-.233.49-.523.491M295.01 160.655l-35.028.068c-.29 0-.525-.218-.525-.489l-.001-.146c0-.27.234-.49.523-.49l35.028-.068c.29 0 .526.219.526.489v.146c.001.27-.234.49-.523.49M286.77 163.125l-26.783.051c-.29 0-.525-.217-.525-.488l-.001-.145c0-.27.234-.49.523-.491l26.783-.052c.29 0 .526.218.526.489v.145c.001.271-.233.49-.523.491M335.31 155.725l-35.028.067c-.29 0-.525-.218-.526-.488v-.146c0-.27.234-.49.523-.49l35.028-.068c.29 0 .525.218.526.489v.145c.001.271-.234.49-.523.491M335.3 153.255l-35.028.068c-.29 0-.525-.218-.526-.489v-.146c0-.27.234-.49.523-.49l35.028-.068c.29 0 .525.219.526.489v.146c.001.27-.234.49-.523.49M335.31 158.195l-35.028.067c-.29 0-.525-.217-.525-.488l-.001-.146c0-.27.234-.49.523-.49l35.028-.068c.29 0 .526.219.526.489v.146c.001.27-.234.49-.523.49M335.31 160.665l-35.028.067c-.29 0-.525-.218-.526-.488v-.146c0-.27.234-.49.523-.49l35.028-.068c.29 0 .525.218.526.488v.146c.001.27-.234.49-.523.491M327.07 163.145l-26.784.052c-.29 0-.524-.218-.525-.49v-.144c-.001-.27.233-.49.523-.491l26.783-.052c.29 0 .525.219.526.489v.146c0 .27-.233.49-.523.49M375.6 155.725l-35.028.067c-.29 0-.525-.218-.526-.488v-.146c0-.27.234-.49.523-.49l35.028-.068c.29 0 .525.218.526.489v.145c.001.271-.234.49-.524.491M375.6 153.255l-35.028.068c-.29 0-.525-.218-.526-.489v-.146c0-.27.234-.49.523-.49l35.028-.068c.29 0 .525.219.526.489v.146c.001.27-.234.49-.524.49M375.61 158.195l-35.028.067c-.29 0-.525-.217-.525-.488l-.001-.146c0-.27.234-.49.523-.49l35.028-.068c.29 0 .526.219.526.489v.146c.001.27-.234.49-.523.49M375.61 160.665l-35.028.067c-.29 0-.525-.218-.526-.488v-.146c0-.27.234-.49.523-.49l35.028-.068c.29 0 .525.218.526.488v.146c.001.27-.234.49-.523.491M367.37 163.145l-26.784.052c-.29 0-.524-.218-.525-.49v-.144c-.001-.27.233-.49.523-.491l26.783-.052c.29 0 .525.219.526.489v.146c0 .27-.234.49-.523.49" fill="#DFE3E5"/><path d="M224.515 136.955h-48.678c-1.67 0-3.024-1.403-3.024-3.133s1.353-3.133 3.024-3.133h49.236c1.214-1.623 3.231-2.685 5.514-2.685 3.71 0 6.717 2.805 6.717 6.266 0 3.46-3.007 6.266-6.717 6.266-2.68 0-4.993-1.464-6.072-3.581z" fill="#fff"/><path d="M175.44 132.935v2.704" stroke="#A8A8A8" stroke-width=".5"/><path d="M232.733 133.845c0 1.162-1.01 2.103-2.255 2.103s-2.254-.941-2.254-2.103c0-1.161 1.01-2.103 2.254-2.103s2.255.942 2.255 2.103zm.814 2.953l-1.533-1.246 1.533 1.246z" stroke="#3B2F7C" stroke-width=".5"/><path d="M181.35 103.84v.005c0 1.083-.88 1.961-1.967 1.964l-81.6.167a1.97 1.97 0 01-1.978-1.96l-.11-53.886a1.97 1.97 0 011.968-1.969l81.6-.168a1.97 1.97 0 011.978 1.961l.005 2.1.104 51.786z" fill="url(#ao)" transform="translate(167.04 12.365)"/><path d="M267.31 111.303h73.082V85.769c-6.608-6.747-13.127-6.747-19.555 0-9.643 10.121-10.288 2.795-12.149 0-1.862-2.795-5.852.041-5.852 2.646s-.744 15.724-7.32 9.705-12.768-14.596-17.081-7.713-6.384 12.504-8.463 10.109c-1.385-1.597-2.272-1.597-2.661 0v10.787z" fill="#78B1EA"/><path d="M103.06 71.379c2.916 1.354 4.728 4.139 6.1 6.897 1.371 2.759 2.506 5.702 4.684 7.963 2.178 2.261 5.791 3.679 8.746 2.404 2.609-1.125 3.86-3.876 4.799-6.413 2.74-7.4 4.78-15.026 6.091-22.759.195-1.147.382-2.324.972-3.347.589-1.023 1.675-1.88 2.92-1.898 1.458-.021 2.644 1.06 3.569 2.115 6.186 7.058 8.875 16.22 14.128 23.91 1.03 1.507 2.386 3.089 4.29 3.277 1.52.15 2.95-.645 4.196-1.473a40.215 40.215 0 009.627-8.955" opacity=".736" stroke="url(#W)" stroke-width=".5" transform="translate(167.04 12.365)"/><path d="M270.67 83.507c0 .294-.255.533-.57.533-.314 0-.57-.239-.57-.533 0-.294.256-.532.57-.532.315 0 .57.238.57.532M279.58 96.232c0 .294-.255.533-.57.533-.314 0-.569-.239-.569-.533 0-.294.255-.532.57-.532.314 0 .569.238.569.532M299.89 77.803c0 .294-.255.532-.57.532-.315 0-.57-.238-.57-.532 0-.294.255-.533.57-.533.315 0 .57.239.57.533M298.38 83.763c0 .294-.255.532-.57.532-.315 0-.569-.238-.569-.532s.254-.532.57-.532c.314 0 .569.238.569.532M340.79 85.593c0 .294-.255.533-.57.533-.315 0-.57-.239-.57-.533 0-.294.255-.532.57-.532.315 0 .57.238.57.532M336.78 89.875c0 .294-.255.533-.57.533-.315 0-.57-.239-.57-.533 0-.294.255-.532.57-.532.315 0 .57.238.57.532M296.66 89.596c0 .294-.255.533-.57.533-.314 0-.569-.239-.569-.533 0-.294.255-.532.57-.532.314 0 .569.238.569.532M318.15 84.827c0 .294-.255.532-.57.532-.314 0-.569-.238-.569-.532 0-.294.255-.533.57-.533.314 0 .569.239.569.533" fill="#fff"/><path d="M284.9 133.595c0 6.131-5.32 11.101-11.881 11.101-6.562 0-11.881-4.97-11.881-11.101 0-6.13 5.32-11.101 11.881-11.101 6.562 0 11.881 4.97 11.881 11.101" fill="#24C030" opacity=".713"/><path d="M278.13 133.595c0 2.641-2.291 4.782-5.118 4.782s-5.118-2.14-5.118-4.782 2.292-4.782 5.118-4.782 5.118 2.14 5.118 4.782" fill="#fff"/><path fill="#fff" d="M277.32 121.475l-4.69 12.12 15.06-3.3z"/><path d="M221.99 54.626c-2.96.557-5.575-1.887-4.979-4.652.335-1.556 1.659-2.791 3.325-3.1 2.95-.547 5.557 1.888 4.971 4.645-.33 1.557-1.652 2.794-3.317 3.107m6.572-2.247h1.247c.163 0 .296-.124.296-.277v-2.7c0-.154-.133-.278-.296-.278h-1.247a6.073 6.073 0 00-.12-.422l1.079-.583a.267.267 0 00.108-.378l-1.445-2.339a.308.308 0 00-.405-.101l-1.08.583a9.506 9.506 0 00-.33-.308l-.002-.001.625-1.01a.267.267 0 00-.109-.378l-2.503-1.35a.308.308 0 00-.405.101l-.624 1.01a7.093 7.093 0 00-.451-.114v-1.165c0-.153-.133-.277-.297-.277h-2.89c-.164 0-.297.124-.297.277v1.165a7.22 7.22 0 00-.452.113l-.623-1.009a.308.308 0 00-.405-.101l-2.503 1.35a.267.267 0 00-.109.378l.624 1.01c-.113.1-.223.204-.33.309l-1.082-.583a.307.307 0 00-.404.101l-1.445 2.34a.267.267 0 00.108.377l1.08.583c-.045.138-.086.28-.121.422h-1.247c-.163 0-.296.124-.296.277v2.701c0 .153.133.277.296.277h1.246a6.437 6.437 0 00.122.422l-1.08.583a.267.267 0 00-.108.378l1.445 2.34a.308.308 0 00.405.1l1.08-.582c.108.105.218.208.33.308h.001l-.624 1.01a.268.268 0 00.109.379l2.503 1.35a.308.308 0 00.405-.102l.623-1.009c.148.043.3.08.452.114v1.165c0 .153.133.277.297.277h2.89c.164 0 .297-.124.297-.277V57.67c.152-.034.304-.071.452-.114l.623 1.009a.308.308 0 00.405.101l2.503-1.35a.268.268 0 00.109-.378l-.625-1.01h.001c.113-.1.223-.203.33-.308l1.08.583c.143.076.324.03.406-.102l1.445-2.339a.267.267 0 00-.108-.378l-1.08-.583a5.72 5.72 0 00.121-.422" fill="url(#M)" transform="translate(167.04 12.365)"/></g><g><path d="M.503 14.414c.289.398.71.765 1.272 1.07 1.637.894 4.73.907 6.634 1.009 2.332.123 4.69.027 6.987-.345a34.063 34.063 0 005.328-1.309c.243-.083 1.908-.495 1.98-.749 0 .003-.413 1.426 2.896 1.07 3.306-.355 6.616 1.25 7.236-4.28.056-.499.08-.993.077-1.48-.025-4.966-2.766-9.4-2.766-9.4-2.273 1.07-9.51 0-9.51 0s-2.068 2.14-4.431 5.352C13.846 8.562 6.759 7.61 2 10.106.1 11.104-.551 12.972.503 14.414" fill="url(#I)" transform="translate(322.4 407.29)"/><path d="M323.17 421.829c.283.398.694.765 1.242 1.07 1.6.894 4.62.907 6.48 1.009 2.277.123 4.579.027 6.823-.345a32.627 32.627 0 005.204-1.309c.236-.083 1.862-.495 1.932-.749 0 .003-.403 1.426 2.829 1.07 3.229-.355 6.46 1.25 7.066-4.28.055-.499.079-.993.076-1.48-2.838.96-16.032 5.362-20.257 5.522-4.044.153-8.965.37-11.395-.508" fill="#731100"/></g></g></svg>